<svg width="512" height="512" viewBox="0 0 512 512" fill="none" xmlns="http://www.w3.org/2000/svg"> <rect width="512" height="512" fill="#2F2F2F"/> <path d="M194.81 276.46H316.711H316.833M194.81 325.27H316.711H316.833M146 414.72L186.564 390.403C189.639 388.866 191.177 388.097 192.789 387.555C194.219 387.075 195.692 386.727 197.187 386.517C198.87 386.282 200.59 386.281 204.027 386.281H326.595C340.263 386.281 347.097 386.281 352.318 383.621C356.91 381.282 360.643 377.548 362.983 372.957C365.643 367.736 365.643 360.902 365.643 347.234V254.496C365.643 240.828 365.643 233.994 362.983 228.773C360.643 224.181 356.91 220.448 352.318 218.108C347.097 215.448 340.263 215.448 326.595 215.448H185.048C171.38 215.448 164.545 215.448 159.325 218.108C154.733 220.448 150.999 224.181 148.66 228.773C146 233.994 146 240.828 146 254.496V414.72Z" stroke="#ECECEC" stroke-width="30" stroke-linecap="round" stroke-linejoin="round"/> <path d="M304 176C304 153.572 303.737 142.358 302.574 133.792C302.574 133.792 301.642 118.626 294.495 111.927C273.713 92.4472 237.925 91.6059 217.505 111.927C210.698 118.701 209.426 133.792 209.426 133.792C208.263 142.358 208 153.572 208 176" stroke="#ECECEC" stroke-width="30" stroke-linecap="round" stroke-linejoin="round"/> </svg>
